<svg id="desk-scene" class="svg-scene" xmlns="http://www.w3.org/2000/svg" xmlns:xlink="http://www.w3.org/1999/xlink" width="1440" height="1024" viewBox="0 0 1440 1024">
  <defs>
    <rect id="desk-a" width="76.571" height="175" x="29.17" y="30" rx="38.286"/>
    <polygon id="desk-b" points="15.6 257.95 119.611 257.95 128.83 167 6.381 167"/>
    <filter id="desk-c" width="107.4%" height="109.9%" x="-3.7%" y="-4.9%" filterUnits="objectBoundingBox">
      <feOffset dy="9" in="SourceAlpha" result="shadowOffsetInner1"/>
      <feComposite in="shadowOffsetInner1" in2="SourceAlpha" k2="-1" k3="1" operator="arithmetic" result="shadowInnerInner1"/>
      <feColorMatrix in="shadowInnerInner1" values="0 0 0 0 0   0 0 0 0 0   0 0 0 0 0  0 0 0 0.1 0"/>
    </filter>
    <rect id="desk-e" width="346" height="246" rx="5"/>
    <filter id="desk-d" width="104.9%" height="106.9%" x="-2.5%" y="-2.6%" filterUnits="objectBoundingBox">
      <feMorphology in="SourceAlpha" operator="dilate" radius=".5" result="shadowSpreadOuter1"/>
      <feOffset dy="2" in="shadowSpreadOuter1" result="shadowOffsetOuter1"/>
      <feGaussianBlur in="shadowOffsetOuter1" result="shadowBlurOuter1" stdDeviation="2"/>
      <feColorMatrix in="shadowBlurOuter1" values="0 0 0 0 0   0 0 0 0 0   0 0 0 0 0  0 0 0 0.1 0"/>
    </filter>
    <path id="desk-f" d="M13.0145407,0.317880795 L22.0225453,0.317880795 L22.0225453,0.219752375 L27.3297725,0.219752375 L27.3297725,0.317880795 L34.9860927,0.317880795 L34.9860927,5.62510798 L27.3297725,5.62510798 L27.3297725,26.4117478 L34.9860927,26.4117478 L34.9860927,31.7189749 L27.3297725,31.7189749 L27.3297725,31.8171034 L22.0225453,31.8171034 L22.0225453,31.7189749 L22.0059603,31.7189749 L22.0059603,26.4117478 L22.0225453,26.4117478 L22.0225453,5.62510798 L13.0145407,5.62510798 L13.0145407,26.4117478 L13.0311258,26.4117478 L13.0311258,31.7189749 L13.0145407,31.7189749 L13.0145407,31.8171034 L7.70731356,31.8171034 L7.70731356,31.7189749 L0.0509933775,31.7189749 L0.0509933775,26.4117478 L7.70731356,26.4117478 L7.70731356,5.62510798 L0.0509933775,5.62510798 L0.0509933775,0.317880795 L7.70731356,0.317880795 L7.70731356,0.219752375 L13.0145407,0.219752375 L13.0145407,0.317880795 Z"/>
    <rect id="desk-g" width="218" height="61" x="110" y="19"/>
    <filter id="desk-h" width="108.7%" height="131.1%" x="-4.4%" y="-15.6%" filterUnits="objectBoundingBox">
      <feOffset dy="19" in="SourceAlpha" result="shadowOffsetInner1"/>
      <feComposite in="shadowOffsetInner1" in2="SourceAlpha" k2="-1" k3="1" operator="arithmetic" result="shadowInnerInner1"/>
      <feColorMatrix in="shadowInnerInner1" values="0 0 0 0 0   0 0 0 0 0   0 0 0 0 0  0 0 0 0.2 0"/>
    </filter>
    <rect id="desk-j" width="116" height="200" rx="5"/>
    <filter id="desk-i" width="114.7%" height="108.5%" x="-7.3%" y="-3.2%" filterUnits="objectBoundingBox">
      <feMorphology in="SourceAlpha" operator="dilate" radius=".5" result="shadowSpreadOuter1"/>
      <feOffset dy="2" in="shadowSpreadOuter1" result="shadowOffsetOuter1"/>
      <feGaussianBlur in="shadowOffsetOuter1" result="shadowBlurOuter1" stdDeviation="2"/>
      <feColorMatrix in="shadowBlurOuter1" values="0 0 0 0 0   0 0 0 0 0   0 0 0 0 0  0 0 0 0.1 0"/>
    </filter>
    <rect id="desk-k" width="104" height="61" x="6" y="55"/>
    <filter id="desk-l" width="118.3%" height="131.1%" x="-9.1%" y="-15.6%" filterUnits="objectBoundingBox">
      <feOffset dy="19" in="SourceAlpha" result="shadowOffsetInner1"/>
      <feComposite in="shadowOffsetInner1" in2="SourceAlpha" k2="-1" k3="1" operator="arithmetic" result="shadowInnerInner1"/>
      <feColorMatrix in="shadowInnerInner1" values="0 0 0 0 0   0 0 0 0 0   0 0 0 0 0  0 0 0 0.2 0"/>
    </filter>
    <path id="desk-m" d="M6.35925713,2.81255399 L10.6587561,2.81255399 L10.6587561,15.6828563 L10.6886093,15.6828563 L10.6886093,15.8594875 L16.993245,15.8594875 L16.993245,13.2058739 L13.3123697,13.2058739 L13.3123697,2.81255399 L16.993245,2.81255399 L16.993245,0.158940397 L0.0247682119,0.158940397 L0.0247682119,2.81255399 L3.70564354,2.81255399 L3.70564354,13.2058739 L0.0247682119,13.2058739 L0.0247682119,15.8594875 L6.32940397,15.8594875 L6.32940397,15.6828563 L6.35925713,15.6828563 L6.35925713,2.81255399 Z"/>
    <rect id="desk-o" width="416" height="266" rx="5"/>
    <filter id="desk-n" width="104.1%" height="106.4%" x="-2%" y="-2.4%" filterUnits="objectBoundingBox">
      <feMorphology in="SourceAlpha" operator="dilate" radius=".5" result="shadowSpreadOuter1"/>
      <feOffset dy="2" in="shadowSpreadOuter1" result="shadowOffsetOuter1"/>
      <feGaussianBlur in="shadowOffsetOuter1" result="shadowBlurOuter1" stdDeviation="2"/>
      <feColorMatrix in="shadowBlurOuter1" values="0 0 0 0 0   0 0 0 0 0   0 0 0 0 0  0 0 0 0.1 0"/>
    </filter>
    <rect id="desk-q" width="243" height="189" rx="5"/>
    <filter id="desk-p" width="107%" height="109%" x="-3.5%" y="-3.4%" filterUnits="objectBoundingBox">
      <feMorphology in="SourceAlpha" operator="dilate" radius=".5" result="shadowSpreadOuter1"/>
      <feOffset dy="2" in="shadowSpreadOuter1" result="shadowOffsetOuter1"/>
      <feGaussianBlur in="shadowOffsetOuter1" result="shadowBlurOuter1" stdDeviation="2"/>
      <feColorMatrix in="shadowBlurOuter1" values="0 0 0 0 0   0 0 0 0 0   0 0 0 0 0  0 0 0 0.1 0"/>
    </filter>
    <polygon id="desk-r" points="69.891 144 144.377 144 167.466 391 46.803 391"/>
    <filter id="desk-s" width="121.5%" height="110.5%" x="-10.8%" y="-5.3%" filterUnits="objectBoundingBox">
      <feOffset dy="-26" in="SourceAlpha" result="shadowOffsetInner1"/>
      <feComposite in="shadowOffsetInner1" in2="SourceAlpha" k2="-1" k3="1" operator="arithmetic" result="shadowInnerInner1"/>
      <feColorMatrix in="shadowInnerInner1" values="0 0 0 0 0   0 0 0 0 0   0 0 0 0 0  0 0 0 0.1 0"/>
    </filter>
    <polygon id="desk-u" points="5.377 0 209.623 0 215 173 0 173"/>
    <filter id="desk-t" width="296.3%" height="343.9%" x="-98.1%" y="-120.8%" filterUnits="objectBoundingBox">
      <feMorphology in="SourceAlpha" operator="dilate" radius="20" result="shadowSpreadOuter1"/>
      <feOffset dy="2" in="shadowSpreadOuter1" result="shadowOffsetOuter1"/>
      <feGaussianBlur in="shadowOffsetOuter1" result="shadowBlurOuter1" stdDeviation="50"/>
      <feColorMatrix in="shadowBlurOuter1" values="0 0 0 0 1   0 0 0 0 0.942410904   0 0 0 0 0.848622948  0 0 0 0.5 0"/>
    </filter>
    <filter id="desk-v" width="236.7%" height="269.9%" x="-68.4%" y="-83.8%" filterUnits="objectBoundingBox">
      <feOffset dy="-14" in="SourceAlpha" result="shadowOffsetInner1"/>
      <feComposite in="shadowOffsetInner1" in2="SourceAlpha" k2="-1" k3="1" operator="arithmetic" result="shadowInnerInner1"/>
      <feColorMatrix in="shadowInnerInner1" values="0 0 0 0 0   0 0 0 0 0   0 0 0 0 0  0 0 0 0.1 0"/>
    </filter>
    <polygon id="desk-w" points="22 69 113 69 104.447 210 30.553 210"/>
    <filter id="desk-x" width="111%" height="107.1%" x="-5.5%" y="-3.5%" filterUnits="objectBoundingBox">
      <feOffset dy="10" in="SourceAlpha" result="shadowOffsetInner1"/>
      <feComposite in="shadowOffsetInner1" in2="SourceAlpha" k2="-1" k3="1" operator="arithmetic" result="shadowInnerInner1"/>
      <feColorMatrix in="shadowInnerInner1" values="0 0 0 0 0   0 0 0 0 0   0 0 0 0 0  0 0 0 0.1 0"/>
    </filter>
  </defs>
  <g fill="none" fill-rule="evenodd">
    <g id="desk-desk">
      <g transform="translate(95 685)">
        <rect width="1250" height="50" fill="#ECC29A"/>
        <rect width="1250" height="50" y="50" fill="#161616"/>
        <rect width="291" height="50" x="-120.5" y="195.5" fill="#161616" transform="rotate(90 25 220.5)"/>
        <rect width="291" height="50" x="1079.5" y="195.5" fill="#161616" transform="rotate(90 1225 220.5)"/>
        <rect width="1250" height="19" y="33" fill="#A66F33"/>
      </g>
    </g>
    <g id="desk-cactus">
      <g class="svg-responsive">
        <g transform="translate(981 427)">
          <use fill="#7EC280" xlink:href="#desk-a"/>
          <rect width="72.571" height="171" x="31.17" y="32" stroke="#71AE72" stroke-width="4" rx="36.286"/>
          <g stroke="#71AE72" stroke-width="4" transform="translate(39.197 30)">
            <rect width="52.517" height="171" x="2" y="2" rx="26.259"/>
            <rect width="21.524" height="171" x="17.497" y="2" rx="10.762"/>
          </g>
          <g fill="#727E5C">
            <g transform="translate(72.014 2)">
              <polygon points="27.347 142 61.573 142.933 61.324 142.933 27.596 143.865"/>
              <polygon points="22.789 129 51.959 129.933 51.747 129.933 23.001 130.865"/>
              <polygon points="30.082 121 59.252 121.933 59.04 121.933 30.294 122.865"/>
              <polygon points="24.612 108 53.782 108.933 53.57 108.933 24.824 109.865"/>
              <polygon points="28.259 100 57.429 100.933 57.216 100.933 28.471 101.865"/>
              <polygon points="27.347 85 56.517 85.933 56.305 85.933 27.559 86.865"/>
              <polygon points="30.082 77 59.252 77.933 59.04 77.933 30.294 78.865"/>
              <polygon points="28.259 64 57.429 64.933 57.216 64.933 28.471 65.865"/>
              <polygon points="24.616 50.944 53.786 51.876 53.574 51.876 24.828 52.809" transform="rotate(-11 39.201 51.876)"/>
              <polygon points="19.019 39.931 48.189 40.864 47.977 40.864 19.231 41.796" transform="rotate(-28 33.604 40.864)"/>
              <polygon points="11.763 29.736 40.933 30.669 40.721 30.669 11.975 31.601" transform="rotate(-41 26.348 30.669)"/>
              <polygon points="1.625 22.134 30.795 23.066 30.582 23.066 1.837 23.999" transform="rotate(-59 16.21 23.066)"/>
              <polygon points="-9.435 13.706 19.735 14.638 19.523 14.638 -9.223 15.571" transform="rotate(-76 5.15 14.638)"/>
            </g>
            <g transform="matrix(-1 0 0 1 61.513 2)">
              <polygon points="26.64 142 60.866 142.933 60.617 142.933 26.889 143.865"/>
              <polygon points="22.082 129 51.252 129.933 51.04 129.933 22.294 130.865"/>
              <polygon points="29.375 121 58.545 121.933 58.332 121.933 29.587 122.865"/>
              <polygon points="23.905 108 53.075 108.933 52.863 108.933 24.117 109.865"/>
              <polygon points="27.551 100 56.722 100.933 56.509 100.933 27.764 101.865"/>
              <polygon points="26.64 85 55.81 85.933 55.598 85.933 26.852 86.865"/>
              <polygon points="29.375 77 58.545 77.933 58.332 77.933 29.587 78.865"/>
              <polygon points="27.551 64 56.722 64.933 56.509 64.933 27.764 65.865"/>
              <polygon points="23.799 51.036 52.97 51.968 52.757 51.968 24.012 52.901" transform="rotate(-11 38.384 51.968)"/>
              <polygon points="18.039 40.402 47.209 41.335 46.997 41.335 18.251 42.268" transform="rotate(-28 32.624 41.335)"/>
              <polygon points="10.858 29.268 40.028 30.201 39.816 30.201 11.07 31.133" transform="rotate(-41 25.443 30.2)"/>
              <polygon points="1.153 22.262 30.323 23.195 30.11 23.195 1.365 24.128" transform="rotate(-59 15.738 23.195)"/>
              <polygon points="-10.027 13.818 19.143 14.75 18.931 14.75 -9.815 15.683" transform="rotate(-76 4.558 14.75)"/>
            </g>
            <g transform="translate(77.483 24)">
              <polygon points="-1.022 28.801 21.3 29.734 21.137 29.734 -.86 30.666" transform="rotate(-34 10.139 29.734)"/>
              <polygon points=".364 43.795 15.396 44.728 15.286 44.728 .473 45.66" transform="rotate(-13 7.88 44.728)"/>
              <polygon points=".364 56.795 15.396 57.728 15.286 57.728 .473 58.66" transform="rotate(-6 7.88 57.728)"/>
              <polygon points=".364 69.795 15.396 70.728 15.286 70.728 .473 71.66" transform="rotate(-6 7.88 70.728)"/>
              <polygon points="2.187 80.795 17.219 81.728 17.11 81.728 2.296 82.66" transform="rotate(-6 9.703 81.728)"/>
              <polygon points=".364 95.795 15.396 96.728 15.286 96.728 .473 97.66" transform="rotate(-6 7.88 96.728)"/>
              <polygon points="1.276 108.795 16.307 109.728 16.198 109.728 1.385 110.66" transform="rotate(-6 8.791 109.728)"/>
              <polygon points="2.187 122.795 17.219 123.728 17.11 123.728 2.296 124.66" transform="rotate(-6 9.703 123.728)"/>
              <polygon points="-5.43 11.925 23.74 12.857 23.528 12.857 -5.218 13.79" transform="rotate(-56 9.155 12.857)"/>
            </g>
            <g transform="matrix(-1 0 0 1 57.429 24)">
              <polygon points="-1.022 28.801 21.3 29.734 21.137 29.734 -.86 30.666" transform="rotate(-34 10.139 29.734)"/>
              <polygon points=".364 43.795 15.396 44.728 15.286 44.728 .473 45.66" transform="rotate(-13 7.88 44.728)"/>
              <polygon points=".364 56.795 15.396 57.728 15.286 57.728 .473 58.66" transform="rotate(-6 7.88 57.728)"/>
              <polygon points=".364 69.795 15.396 70.728 15.286 70.728 .473 71.66" transform="rotate(-6 7.88 70.728)"/>
              <polygon points="2.187 80.795 17.219 81.728 17.11 81.728 2.296 82.66" transform="rotate(-6 9.703 81.728)"/>
              <polygon points=".364 95.795 15.396 96.728 15.286 96.728 .473 97.66" transform="rotate(-6 7.88 96.728)"/>
              <polygon points="1.276 108.795 16.307 109.728 16.198 109.728 1.385 110.66" transform="rotate(-6 8.791 109.728)"/>
              <polygon points="2.187 122.795 17.219 123.728 17.11 123.728 2.296 124.66" transform="rotate(-6 9.703 123.728)"/>
              <polygon points="-5.43 11.925 23.74 12.857 23.528 12.857 -5.218 13.79" transform="rotate(-56 9.155 12.857)"/>
            </g>
            <polygon points="52.335 14.206 81.506 15.139 81.293 15.139 52.548 16.072" transform="rotate(-90 66.92 15.139)"/>
          </g>
          <g>
            <use fill="#EA864B" xlink:href="#desk-b"/>
            <use fill="#000" filter="url(#desk-c)" xlink:href="#desk-b"/>
          </g>
        </g>
      </g>
    </g>
    <g id="desk-lamp">
      <g class="svg-responsive">
        <g transform="translate(175 294)">
          <use fill="#E8E8E8" xlink:href="#desk-r"/>
          <use fill="#000" filter="url(#desk-s)" xlink:href="#desk-r"/>
          <use id="desk-lamp-light" fill="#000" filter="url(#desk-t)" xlink:href="#desk-u"/>
          <use fill="#FFDCA3" xlink:href="#desk-u"/>
          <use fill="#000" filter="url(#desk-v)" xlink:href="#desk-u"/>
        </g>
      </g>
    </g>
    <g id="desk-mug">
      <g class="svg-responsive">
        <g transform="translate(1145 461)">
          <rect width="134" height="14" y="210" fill="#A66F33"/>
          <use fill="#E0E0E0" xlink:href="#desk-w"/>
          <use fill="#000" filter="url(#desk-x)" xlink:href="#desk-w"/>
        </g>
      </g>
    </g>
    <g id="desk-laptop">
      <g transform="translate(419 339)">
        <rect width="521" height="331" x="40" fill="#1E1E1E" rx="21"/>
        <path fill="#676767" d="M601.948743,321 C601.982735,321.516443 602,322.037455 602,322.5625 L602,322.5625 L602,322.5625 C602,335.506674 591.506674,346 578.5625,346 L23.4375,346 C10.4933262,346 1.5852041e-15,335.506674 0,322.5625 L0,322.5625 L0,322.5625 C-6.42994201e-17,322.037455 0.0172646154,321.516443 0.0512571168,321 L601.948743,321 Z"/>
        <rect width="485" height="276" x="59" y="28" fill="#CACACA"/>
        <g id="desk-browser" transform="translate(77 44)">
          <use fill="#000" filter="url(#desk-d)" xlink:href="#desk-e"/>
          <use fill="#FFF" xlink:href="#desk-e"/>
          <path fill="#ECECEC" d="M346,22 L346,5 C346,2.23857625 343.761424,3.13770154e-14 341,0 L5,0 L5,0 C2.23857625,5.07265313e-16 -3.38176876e-16,2.23857625 0,5 L0,5 L0,22 L0,19.6 L346,19.6 L346,22 Z"/>
          <g transform="translate(7 6)">
            <circle cx="4" cy="4" r="4" fill="#FC625D"/>
            <circle cx="17" cy="4" r="4" fill="#FDBD41"/>
            <circle cx="30" cy="4" r="4" fill="#35C94A"/>
          </g>
          <g transform="translate(0 19)">
            <rect width="94" height="134.5" y=".5" fill="#828282"/>
            <g transform="translate(30 20)">
              <use fill="#FFF" xlink:href="#desk-f"/>
            </g>
            <g fill="#FFF" opacity=".4" transform="translate(11 81)">
              <rect width="60.537" height="6" rx="3"/>
              <rect width="47.084" height="6" y="16" rx="3"/>
              <rect width="55.679" height="6" y="32" rx="3"/>
            </g>
            <g transform="translate(110 97)">
              <rect width="150" height="6" fill="#5A5A5A" rx="3"/>
              <rect width="207" height="6" y="16" fill="#CBCBCB" rx="3"/>
            </g>
            <use fill="#F5A623" xlink:href="#desk-g"/>
            <use fill="#000" filter="url(#desk-h)" xlink:href="#desk-g"/>
          </g>
          <g transform="translate(0 150)">
            <path fill="#292929" d="M346,0.5 L346,92 C346,94.7614237 343.761424,97 341,97 L5,97 C2.23857625,97 3.38176876e-16,94.7614237 0,92 L0,0.5 L0,2 L346,2 L346,0.5 Z"/>
            <rect width="346" height="14" y="2" fill="#414141"/>
            <path fill="#323232" d="M207.904916,95.9271523 C208.756249,96.5990292 209.831299,97 211,97 L341,97 C343.761424,97 346,94.7614237 346,92 L346,15.8178808 L346,16.5364238 L212.176471,16.5364238 L212.176471,95.9271523 L207.904916,95.9271523 Z M206,53.9089404 L206,15.8178808 L206,16.1771523 L206,53.9089404 Z"/>
            <g fill="#F5A623" transform="translate(11 29)">
              <rect width="190" height="6" rx="3"/>
              <rect width="162" height="6" y="16" fill-opacity=".4" rx="3"/>
              <rect width="126" height="6" y="32" fill-opacity=".4" rx="3"/>
              <rect width="149" height="6" y="48" fill-opacity=".4" rx="3"/>
            </g>
            <g fill="#F5A623" opacity=".351" transform="translate(224 29)">
              <rect width="109" height="6" rx="3"/>
              <rect width="92.937" height="6" y="16" rx="3"/>
              <rect width="72.284" height="6" y="32" rx="3"/>
              <rect width="85.479" height="6" y="48" rx="3"/>
            </g>
          </g>
        </g>
        <g id="desk-simulator" transform="translate(397 68)">
          <use fill="#000" filter="url(#desk-i)" xlink:href="#desk-j"/>
          <use fill="#FFF" xlink:href="#desk-j"/>
          <g fill="#B5B5B5" transform="translate(7 29)">
            <rect width="12" height="2"/>
            <rect width="12" height="2" y="4"/>
            <rect width="12" height="2" y="8"/>
          </g>
          <use fill="#F5A623" xlink:href="#desk-k"/>
          <use fill="#000" filter="url(#desk-l)" xlink:href="#desk-k"/>
          <g transform="translate(50 28)">
            <use fill="#F5A623" xlink:href="#desk-m"/>
          </g>
          <g transform="translate(7 134)">
            <rect width="75.362" height="6" fill="#5A5A5A" rx="3"/>
            <rect width="104" height="6" y="16" fill="#CBCBCB" rx="3"/>
            <rect width="104" height="6" y="31" fill="#CBCBCB" rx="3"/>
          </g>
          <g>
            <path fill="#ECECEC" d="M116,22 L116,5 C116,2.23857625 113.761424,3.80913106e-16 111,8.8817842e-16 L111,0 L5,0 L5,8.8817842e-16 C2.23857625,1.39544373e-15 -3.38176876e-16,2.23857625 0,5 L0,5 L0,22 L0,19.6 L116,19.6 L116,22 Z"/>
            <g transform="translate(7 6)">
              <circle cx="4" cy="4" r="4" fill="#FC625D"/>
              <circle cx="17" cy="4" r="4" fill="#FDBD41"/>
              <circle cx="30" cy="4" r="4" fill="#35C94A"/>
            </g>
          </g>
        </g>
        <g id="desk-editor" transform="translate(63 32)">
          <use fill="#000" filter="url(#desk-n)" xlink:href="#desk-o"/>
          <use fill="#FFF" xlink:href="#desk-o"/>
          <g transform="translate(0 11)">
            <path fill="#292929" d="M416,0.230593121 L416,250 C416,252.761424 413.761424,255 411,255 L5,255 L5,255 C2.23857625,255 3.22224576e-14,252.761424 0,250 L0,0.230593121 L0,8.12531663 L416,8.12531663 L416,0.230593121 Z"/>
            <rect width="416" height="14" y="9" fill="#414141"/>
            <path fill="#323232" d="M6.17647059,255 L135,255 C137.761424,255 140,252.761424 140,250 L140,17.8555696 L140,24.0534323 L6.17647059,24.0534323 L6.17647059,255 Z M1.70985894e-13,133.927785 L1.70553353e-13,17.8555696 L1.70530257e-13,20.954501 L1.70530257e-13,133.927785 Z" transform="matrix(-1 0 0 1 140 0)"/>
            <g fill="#919191" transform="translate(173 76)">
              <rect width="190" height="6" rx="3"/>
              <rect width="162" height="6" y="16" rx="3"/>
              <rect width="126" height="6" y="32" rx="3"/>
              <rect width="149" height="6" y="48" rx="3"/>
            </g>
            <text fill="#FFF" font-family="FiraCode-Bold, Fira Code" font-size="18" font-weight="bold">
              <tspan x="152" y="56"> </tspan>    <tspan x="152" y="160">}</tspan>
            </text>
            <text fill="#FFF" font-family="FiraCode-Bold, Fira Code" font-size="18" font-weight="bold">
              <tspan x="260" y="56"> {</tspan>
            </text>
            <rect width="90" height="6" x="156" y="47" fill="#F5A623" rx="3"/>
            <g fill="#FFF" opacity=".351" transform="translate(12 47)">
              <rect width="110" height="6" rx="3"/>
              <rect width="93.789" height="6" y="16" rx="3"/>
              <rect width="72.947" height="6" y="32" rx="3"/>
              <rect width="86.263" height="6" y="48" rx="3"/>
              <g transform="translate(0 95)">
                <rect width="110" height="6" rx="3"/>
                <rect width="93.789" height="6" y="16" rx="3"/>
                <rect width="72.947" height="6" y="32" rx="3"/>
                <rect width="86.263" height="6" y="48" rx="3"/>
              </g>
            </g>
          </g>
          <g>
            <path fill="#3F3F3F" d="M416,22 L416,5 C416,2.23857625 413.761424,3.80913106e-16 411,8.8817842e-16 L411,0 L5,0 L5,8.8817842e-16 C2.23857625,1.39544373e-15 -3.38176876e-16,2.23857625 0,5 L0,5 L0,22 L0,19.6 L416,19.6 L416,22 Z"/>
            <g transform="translate(7 6)">
              <circle cx="4" cy="4" r="4" fill="#FC625D"/>
              <circle cx="17" cy="4" r="4" fill="#FDBD41"/>
              <circle cx="30" cy="4" r="4" fill="#35C94A"/>
            </g>
          </g>
        </g>
        <g id="desk-terminal" transform="translate(287 96)">
          <use fill="#000" filter="url(#desk-p)" xlink:href="#desk-q"/>
          <use fill="#FFF" xlink:href="#desk-q"/>
          <g transform="translate(0 15)">
            <path fill="#373737" d="M243,0.785023612 L243,169.769407 L243,169.769407 C243,172.530831 240.761424,174.769407 238,174.769407 L5,174.769407 L5,174.769407 C2.23857625,174.769407 1.62803173e-14,172.530831 0,169.769407 L0,0.785023612 L0,5.41570576 L243,5.41570576 L243,0.785023612 Z"/>
            <text fill="#FFF" font-family="FiraCode-Bold, Fira Code" font-size="18" font-weight="bold" transform="translate(12 11)">
              <tspan x="0" y="21">&gt;_</tspan>
            </text>
          </g>
          <g>
            <path fill="#ECECEC" d="M243,22 L243,5 C243,2.23857625 240.761424,1.42085566e-14 238,0 L5,0 L5,0 C2.23857625,5.07265313e-16 -3.38176876e-16,2.23857625 0,5 L0,5 L0,22 L0,19.6 L243,19.6 L243,22 Z"/>
            <g transform="translate(7 6)">
              <circle cx="4" cy="4" r="4" fill="#FC625D"/>
              <circle cx="17" cy="4" r="4" fill="#FDBD41"/>
              <circle cx="30" cy="4" r="4" fill="#35C94A"/>
            </g>
          </g>
        </g>
      </g>
    </g>
    <g id="desk-text" font-size="48" transform="translate(470 109)">
      <g class="svg-responsive">
        <text id="desk-text-1" fill="#000" font-family="Montserrat-Bold, Montserrat" font-weight="bold">
          <tspan x="0" y="48">My skill sets include:</tspan>
        </text>
        <text id="desk-text-2" fill="#9B9B9B" font-family="Oxygen-Light, Oxygen" font-weight="300">
          <tspan x="7" y="111">front end development</tspan>
        </text>
        <text id="desk-text-3" fill="#9B9B9B" font-family="Oxygen-Light, Oxygen" font-weight="300">
          <tspan x="9" y="111">back end development</tspan>
        </text>
      </g>
    </g>
  </g>
</svg>
