<svg id="space-scene" class="svg-scene" xmlns="http://www.w3.org/2000/svg" xmlns:xlink="http://www.w3.org/1999/xlink" width="1440" height="1024" viewBox="0 0 1440 1024">
  <defs>
    <polygon id="space-b" points="25.968 41.22 9.919 49.711 12.984 31.726 0 18.988 17.943 16.364 25.968 0 33.992 16.364 51.935 18.988 38.951 31.726 42.016 49.711"/>
    <filter id="space-a" width="566%" height="586.8%" x="-233%" y="-239.4%" filterUnits="objectBoundingBox">
      <feMorphology in="SourceAlpha" operator="dilate" radius="15" result="shadowSpreadOuter1"/>
      <feOffset dy="2" in="shadowSpreadOuter1" result="shadowOffsetOuter1"/>
      <feGaussianBlur in="shadowOffsetOuter1" result="shadowBlurOuter1" stdDeviation="25"/>
      <feColorMatrix in="shadowBlurOuter1" values="0 0 0 0 1   0 0 0 0 0.995289504   0 0 0 0 0.812598643  0 0 0 1 0"/>
    </filter>
    <polygon id="space-d" points="25.968 41.22 9.919 49.711 12.984 31.726 0 18.988 17.943 16.364 25.968 0 33.992 16.364 51.935 18.988 38.951 31.726 42.016 49.711"/>
    <filter id="space-c" width="566%" height="586.8%" x="-233%" y="-239.4%" filterUnits="objectBoundingBox">
      <feMorphology in="SourceAlpha" operator="dilate" radius="15" result="shadowSpreadOuter1"/>
      <feOffset dy="2" in="shadowSpreadOuter1" result="shadowOffsetOuter1"/>
      <feGaussianBlur in="shadowOffsetOuter1" result="shadowBlurOuter1" stdDeviation="25"/>
      <feColorMatrix in="shadowBlurOuter1" values="0 0 0 0 1   0 0 0 0 0.995289504   0 0 0 0 0.812598643  0 0 0 1 0"/>
    </filter>
    <polygon id="space-f" points="25.968 41.22 9.919 49.711 12.984 31.726 0 18.988 17.943 16.364 25.968 0 33.992 16.364 51.935 18.988 38.951 31.726 42.016 49.711"/>
    <filter id="space-e" width="681.5%" height="707.5%" x="-290.7%" y="-299.7%" filterUnits="objectBoundingBox">
      <feMorphology in="SourceAlpha" operator="dilate" radius="25" result="shadowSpreadOuter1"/>
      <feOffset dy="2" in="shadowSpreadOuter1" result="shadowOffsetOuter1"/>
      <feGaussianBlur in="shadowOffsetOuter1" result="shadowBlurOuter1" stdDeviation="25"/>
      <feColorMatrix in="shadowBlurOuter1" values="0 0 0 0 1   0 0 0 0 0.995289504   0 0 0 0 0.812598643  0 0 0 1 0"/>
    </filter>
    <circle id="space-g" cx="280" cy="340" r="272"/>
    <filter id="space-h" width="109.4%" height="109.4%" x="-4.7%" y="-4.7%" filterUnits="objectBoundingBox">
      <feOffset dx="-50" dy="-50" in="SourceAlpha" result="shadowOffsetInner1"/>
      <feComposite in="shadowOffsetInner1" in2="SourceAlpha" k2="-1" k3="1" operator="arithmetic" result="shadowInnerInner1"/>
      <feColorMatrix in="shadowInnerInner1" values="0 0 0 0 0   0 0 0 0 0   0 0 0 0 0  0 0 0 0.2 0"/>
    </filter>
    <path id="space-i" d="M8.04282724,335.123898 C10.821669,337.052222 14.2344874,338.333066 18.1728306,338.801364 L15.7038064,346 C10.9681717,359.807119 18.3220626,371 32.1291813,371 C45.9363001,371 60.9681717,359.807119 65.7038064,346 L69.8196265,334 C70.344112,332.470821 70.7203048,330.973709 70.9558618,329.520317 C78.0376578,324.049369 83.7711751,316.647787 86.733221,308 L104.737237,308 L103.536789,311.5 C100.032419,321.717268 105.474299,330 115.691566,330 C125.908834,330 137.032419,321.717268 140.536789,311.5 L146.118873,295.224993 C156.881492,287.253847 165.641592,276.207486 169.828577,264 L173.355494,253.716992 C187.9806,249.829011 201.901125,237.548266 206.890962,223 C212.114277,207.77101 205.847186,195.026704 192.705821,191.792996 C195.322543,187.744712 197.456196,183.449484 198.982302,179 L199.325287,178 C207.660004,153.699471 194.717156,134 170.416627,134 L102.375479,134 C45.7238904,182.891951 9.45560857,254.757325 8.04282794,335.123929 Z"/>
    <filter id="space-j" width="103%" height="102.5%" x="-1.5%" y="-1.3%" filterUnits="objectBoundingBox">
      <feMorphology in="SourceAlpha" radius="3" result="shadowSpreadInner1"/>
      <feOffset dx="-2" dy="-3" in="shadowSpreadInner1" result="shadowOffsetInner1"/>
      <feComposite in="shadowOffsetInner1" in2="SourceAlpha" k2="-1" k3="1" operator="arithmetic" result="shadowInnerInner1"/>
      <feColorMatrix in="shadowInnerInner1" values="0 0 0 0 0   0 0 0 0 0   0 0 0 0 0  0 0 0 0.1 0"/>
    </filter>
    <path id="space-k" d="M141.296375,574.026408 C150.740364,569.760129 154.56354,559.044452 149.872995,546.5 C149.851854,545.998612 150.019043,546 150.186038,546 C166.478438,546 174.747532,532.7924 168.655576,516.5 L161.364254,497 L166.864254,497 C183.156654,497 191.425748,483.7924 185.333792,467.5 C180.598236,454.835173 168.578764,444.034387 155.808225,439.852562 C156.347715,435.843328 155.800301,431.30587 154.00332,426.5 C147.911364,410.2076 129.765258,397 113.472858,397 L30.4728578,397 C23.9960823,397 18.7872532,399.087236 15.2445291,402.625758 C19.0185358,418.641664 24.2082259,434.111162 30.6742745,448.894929 C34.1190218,451.13314 37.7917967,452.923696 41.5288888,454.147439 C40.9893968,458.156672 41.5368101,462.69413 43.3337919,467.5 C47.9187386,479.762037 59.3316569,490.276715 71.6433913,494.728512 C71.8995364,495.640916 72.201744,496.565382 72.5512106,497.5 L84.2910679,528.897216 C101.143542,546.353545 120.309993,561.56129 141.296377,574.026407 Z"/>
    <filter id="space-l" width="104.1%" height="104%" x="-2%" y="-2%" filterUnits="objectBoundingBox">
      <feMorphology in="SourceAlpha" radius="3" result="shadowSpreadInner1"/>
      <feOffset dx="-4" dy="-2" in="shadowSpreadInner1" result="shadowOffsetInner1"/>
      <feComposite in="shadowOffsetInner1" in2="SourceAlpha" k2="-1" k3="1" operator="arithmetic" result="shadowInnerInner1"/>
      <feColorMatrix in="shadowInnerInner1" values="0 0 0 0 0   0 0 0 0 0   0 0 0 0 0  0 0 0 0.1 0"/>
    </filter>
    <path id="space-m" d="M550.021215,307.023001 C547.891669,306.357672 545.595432,306 543.177132,306 L445.177132,306 C431.922298,306 420.019782,316.745166 418.592118,330 L418.268991,333 C417.946856,335.990795 418.185547,338.853816 418.900645,341.494455 C404.659579,344.059038 392.760045,356.29377 391.176053,371 C389.391473,387.568542 401.376243,401 417.944785,401 L422.767106,401 C419.945009,404.746235 418.060582,409.209188 417.544569,414 L417.221442,417 C415.866321,429.581328 424.43568,439.901551 436.645276,440.917852 L435.236212,454 C434.0317,465.183037 440.668239,474.579638 450.732638,477.243895 L445.804297,523 C444.717227,533.092667 450.016712,541.730278 458.458674,545.277161 C489.921411,517.901619 515.03025,483.411772 531.279562,444.313248 L531.636428,441 L532.63089,441 C545.126431,409.77314 552,375.689274 552,340 C552,328.837856 551.32764,317.83275 550.02121,307.022973 Z"/>
    <filter id="space-n" width="104.3%" height="102.9%" x="-2.2%" y="-1.5%" filterUnits="objectBoundingBox">
      <feMorphology in="SourceAlpha" radius="3" result="shadowSpreadInner1"/>
      <feOffset dx="4" dy="-2" in="shadowSpreadInner1" result="shadowOffsetInner1"/>
      <feComposite in="shadowOffsetInner1" in2="SourceAlpha" k2="-1" k3="1" operator="arithmetic" result="shadowInnerInner1"/>
      <feColorMatrix in="shadowInnerInner1" values="0 0 0 0 0   0 0 0 0 0   0 0 0 0 0  0 0 0 0.1 0"/>
    </filter>
    <path id="space-o" d="M548.37187,295.464648 C536.121235,294.720541 522.559696,282.322989 517.651923,267.138298 L512.400687,250.890927 C509.495321,253.377054 505.710876,254.787234 501.206939,254.787234 L447.73206,254.787234 C433.167663,254.787234 416.594892,240.041208 410.71574,221.851064 L409.237248,217.276596 L399.422765,217.276596 C400.558869,218.771361 401.484092,220.485809 402.073198,222.308511 C403.951261,228.119251 401.702122,232.829787 397.049606,232.829787 L369.945901,232.829787 C365.293385,232.829787 359.999305,228.119251 358.121243,222.308511 C356.250191,216.519461 358.475585,211.822418 363.092832,211.787431 C359.593705,208.581914 356.673313,204.229832 355.123976,199.43617 C351.939435,189.583175 355.753192,181.595745 363.64224,181.595745 L397.705006,181.595745 L391.495337,162.382979 L381.606147,162.382979 C375.335365,162.382979 368.199867,156.033995 365.668565,148.202128 C363.137264,140.37026 366.168711,134.021277 372.439493,134.021277 L390.459887,134.021277 C393.364922,128.354244 398.665641,124.87234 405.742872,124.87234 L412.124366,124.87234 C411.581029,116.708001 413.967202,109.930868 418.621983,105.925122 C486.3139,146.09958 535.086493,214.802045 548.371866,295.464624 Z"/>
    <filter id="space-p" width="103.6%" height="103.7%" x="-1.8%" y="-1.8%" filterUnits="objectBoundingBox">
      <feMorphology in="SourceAlpha" radius="3" result="shadowSpreadInner1"/>
      <feOffset dx="4" dy="-2" in="shadowSpreadInner1" result="shadowOffsetInner1"/>
      <feComposite in="shadowOffsetInner1" in2="SourceAlpha" k2="-1" k3="1" operator="arithmetic" result="shadowInnerInner1"/>
      <feColorMatrix in="shadowInnerInner1" values="0 0 0 0 0   0 0 0 0 0   0 0 0 0 0  0 0 0 0.1 0"/>
    </filter>
    <path id="space-r" d="M76.0992433,59.3742373 C76.033524,58.5915406 76,57.7996853 76,57 C76,44.4593203 84.2444161,33.8442272 95.6089237,30.2790453 C98.7699362,13.0533067 113.860587,0 132,0 C152.434536,0 169,16.5654643 169,37 C169,57.4345357 152.434536,74 132,74 C130.148369,74 128.328507,73.8639863 126.549858,73.6014049 C121.451387,80.5151416 113.249441,85 104,85 C99.9795526,85 96.1570161,84.1526428 92.7012387,82.6267767 C89.9717505,87.0511652 85.0802439,90 79.5,90 C70.9395864,90 64,83.0604136 64,74.5 C64,67.107867 69.1746816,60.9243457 76.0992433,59.3742373 Z"/>
    <filter id="space-q" width="115.2%" x="-4.3%" y="-5%" filterUnits="objectBoundingBox">
      <feOffset dx="7" dy="9" in="SourceAlpha" result="shadowOffsetOuter1"/>
      <feColorMatrix in="shadowOffsetOuter1" values="0 0 0 0 0   0 0 0 0 0   0 0 0 0 0  0 0 0 0.1 0"/>
    </filter>
    <filter id="space-s" width="116.2%" height="121.1%" x="-4.8%" y="-5.6%" filterUnits="objectBoundingBox">
      <feOffset dx="-4" dy="-10" in="SourceAlpha" result="shadowOffsetInner1"/>
      <feComposite in="shadowOffsetInner1" in2="SourceAlpha" k2="-1" k3="1" operator="arithmetic" result="shadowInnerInner1"/>
      <feColorMatrix in="shadowInnerInner1" values="0 0 0 0 0   0 0 0 0 0   0 0 0 0 0  0 0 0 0.1 0"/>
    </filter>
    <path id="space-u" d="M445.693271,222.196557 C445.618893,221.310744 445.580952,220.414564 445.580952,219.509524 C445.580952,205.316659 454.911538,193.30307 467.773274,189.268189 C471.350737,169.773028 488.429521,155 508.95873,155 C532.085435,155 550.833333,173.747898 550.833333,196.874603 C550.833333,220.001308 532.085435,238.749206 508.95873,238.749206 C506.863155,238.749206 504.803532,238.595273 502.790553,238.298098 C497.02038,246.122692 487.73786,251.198413 477.269841,251.198413 C472.719716,251.198413 468.393575,250.23942 464.482513,248.512527 C461.393426,253.519811 455.857482,256.857143 449.542063,256.857143 C439.853849,256.857143 432,249.003294 432,239.315079 C432,230.949062 437.856425,223.950886 445.693271,222.196557 Z"/>
    <filter id="space-t" width="113.5%" height="117.7%" x="-3.8%" y="-4.4%" filterUnits="objectBoundingBox">
      <feOffset dx="7" dy="9" in="SourceAlpha" result="shadowOffsetOuter1"/>
      <feColorMatrix in="shadowOffsetOuter1" values="0 0 0 0 0   0 0 0 0 0   0 0 0 0 0  0 0 0 0.1 0"/>
    </filter>
    <filter id="space-v" width="114.3%" height="118.7%" x="-4.2%" y="-4.9%" filterUnits="objectBoundingBox">
      <feOffset dx="-4" dy="-10" in="SourceAlpha" result="shadowOffsetInner1"/>
      <feComposite in="shadowOffsetInner1" in2="SourceAlpha" k2="-1" k3="1" operator="arithmetic" result="shadowInnerInner1"/>
      <feColorMatrix in="shadowInnerInner1" values="0 0 0 0 0   0 0 0 0 0   0 0 0 0 0  0 0 0 0.1 0"/>
    </filter>
    <path id="space-x" d="M10.4105226,319.179962 C10.3594076,318.571198 10.3333333,317.955311 10.3333333,317.333333 C10.3333333,307.579471 16.745657,299.323288 25.5847184,296.550369 C28.0432837,283.152572 39.7804562,273 53.8888889,273 C69.7824167,273 82.6666667,285.88425 82.6666667,301.777778 C82.6666667,317.671306 69.7824167,330.555556 53.8888889,330.555556 C52.4487318,330.555556 51.033283,330.449767 49.6498892,330.245537 C45.6844124,335.622888 39.3051208,339.111111 32.1111111,339.111111 C28.9840965,339.111111 26.0110125,338.452056 23.3231857,337.265271 C21.2002504,340.706462 17.3957452,343 13.0555556,343 C6.39745607,343 1,337.602544 1,330.944444 C1,325.195008 5.02475233,320.385602 10.4105226,319.179962 Z"/>
    <filter id="space-w" width="119.6%" height="125.7%" x="-5.5%" y="-6.4%" filterUnits="objectBoundingBox">
      <feOffset dx="7" dy="9" in="SourceAlpha" result="shadowOffsetOuter1"/>
      <feColorMatrix in="shadowOffsetOuter1" values="0 0 0 0 0   0 0 0 0 0   0 0 0 0 0  0 0 0 0.1 0"/>
    </filter>
    <filter id="space-y" width="120.8%" height="127.1%" x="-6.1%" y="-7.1%" filterUnits="objectBoundingBox">
      <feOffset dx="-4" dy="-10" in="SourceAlpha" result="shadowOffsetInner1"/>
      <feComposite in="shadowOffsetInner1" in2="SourceAlpha" k2="-1" k3="1" operator="arithmetic" result="shadowInnerInner1"/>
      <feColorMatrix in="shadowInnerInner1" values="0 0 0 0 0   0 0 0 0 0   0 0 0 0 0  0 0 0 0.1 0"/>
    </filter>
    <path id="space-A" d="M417.335034,286.902252 C417.289761,286.363061 417.266667,285.817561 417.266667,285.266667 C417.266667,276.627532 422.946153,269.314912 430.775036,266.858898 C432.952623,254.992278 443.348404,246 455.844444,246 C469.921569,246 481.333333,257.411764 481.333333,271.488889 C481.333333,285.566014 469.921569,296.977778 455.844444,296.977778 C454.568877,296.977778 453.315193,296.884079 452.089902,296.70319 C448.577622,301.465986 442.927393,304.555556 436.555556,304.555556 C433.785914,304.555556 431.152611,303.971821 428.771964,302.920668 C426.89165,305.96858 423.521946,308 419.677778,308 C413.780604,308 409,303.219396 409,297.322222 C409,292.229864 412.564781,287.970105 417.335034,286.902252 Z"/>
    <filter id="space-z" width="122.1%" height="129%" x="-6.2%" y="-7.3%" filterUnits="objectBoundingBox">
      <feOffset dx="7" dy="9" in="SourceAlpha" result="shadowOffsetOuter1"/>
      <feColorMatrix in="shadowOffsetOuter1" values="0 0 0 0 0   0 0 0 0 0   0 0 0 0 0  0 0 0 0.1 0"/>
    </filter>
    <filter id="space-B" width="123.5%" height="130.6%" x="-6.9%" y="-8.1%" filterUnits="objectBoundingBox">
      <feOffset dx="-4" dy="-10" in="SourceAlpha" result="shadowOffsetInner1"/>
      <feComposite in="shadowOffsetInner1" in2="SourceAlpha" k2="-1" k3="1" operator="arithmetic" result="shadowInnerInner1"/>
      <feColorMatrix in="shadowInnerInner1" values="0 0 0 0 0   0 0 0 0 0   0 0 0 0 0  0 0 0 0.1 0"/>
    </filter>
    <path id="space-D" d="M63.6463136,400.707977 C63.6156445,400.342719 63.6,399.973186 63.6,399.6 C63.6,393.747683 67.4473942,388.793973 72.7508311,387.130221 C74.2259702,379.091543 81.2682737,373 89.7333333,373 C99.26945,373 107,380.73055 107,390.266667 C107,399.802783 99.26945,407.533333 89.7333333,407.533333 C88.8692391,407.533333 88.0199698,407.46986 87.1899335,407.347322 C84.8106492,410.573732 80.9830735,412.666667 76.6666667,412.666667 C74.7904579,412.666667 73.0066075,412.271233 71.3939114,411.559162 C70.1201502,413.623877 67.8374471,415 65.2333333,415 C61.2384736,415 58,411.761526 58,407.766667 C58,404.317005 60.4148514,401.431361 63.6463136,400.707977 Z"/>
    <filter id="space-C" width="132.7%" height="142.9%" x="-9.2%" y="-10.7%" filterUnits="objectBoundingBox">
      <feOffset dx="7" dy="9" in="SourceAlpha" result="shadowOffsetOuter1"/>
      <feColorMatrix in="shadowOffsetOuter1" values="0 0 0 0 0   0 0 0 0 0   0 0 0 0 0  0 0 0 0.1 0"/>
    </filter>
    <filter id="space-E" width="134.7%" height="145.2%" x="-10.2%" y="-11.9%" filterUnits="objectBoundingBox">
      <feOffset dx="-4" dy="-10" in="SourceAlpha" result="shadowOffsetInner1"/>
      <feComposite in="shadowOffsetInner1" in2="SourceAlpha" k2="-1" k3="1" operator="arithmetic" result="shadowInnerInner1"/>
      <feColorMatrix in="shadowInnerInner1" values="0 0 0 0 0   0 0 0 0 0   0 0 0 0 0  0 0 0 0.1 0"/>
    </filter>
    <path id="space-G" d="M450.646314,125.707977 C450.615645,125.342719 450.6,124.973186 450.6,124.6 C450.6,118.747683 454.447394,113.793973 459.750831,112.130221 C461.22597,104.091543 468.268274,98 476.733333,98 C486.26945,98 494,105.73055 494,115.266667 C494,124.802783 486.26945,132.533333 476.733333,132.533333 C475.869239,132.533333 475.01997,132.46986 474.189934,132.347322 C471.810649,135.573732 467.983073,137.666667 463.666667,137.666667 C461.790458,137.666667 460.006608,137.271233 458.393911,136.559162 C457.12015,138.623877 454.837447,140 452.233333,140 C448.238474,140 445,136.761526 445,132.766667 C445,129.317005 447.414851,126.431361 450.646314,125.707977 Z"/>
    <filter id="space-F" width="132.7%" height="142.9%" x="-9.2%" y="-10.7%" filterUnits="objectBoundingBox">
      <feOffset dx="7" dy="9" in="SourceAlpha" result="shadowOffsetOuter1"/>
      <feColorMatrix in="shadowOffsetOuter1" values="0 0 0 0 0   0 0 0 0 0   0 0 0 0 0  0 0 0 0.1 0"/>
    </filter>
    <filter id="space-H" width="134.7%" height="145.2%" x="-10.2%" y="-11.9%" filterUnits="objectBoundingBox">
      <feOffset dx="-4" dy="-10" in="SourceAlpha" result="shadowOffsetInner1"/>
      <feComposite in="shadowOffsetInner1" in2="SourceAlpha" k2="-1" k3="1" operator="arithmetic" result="shadowInnerInner1"/>
      <feColorMatrix in="shadowInnerInner1" values="0 0 0 0 0   0 0 0 0 0   0 0 0 0 0  0 0 0 0.1 0"/>
    </filter>
    <path id="space-J" d="M497.705261,361.089981 C497.679704,360.785599 497.666667,360.477655 497.666667,360.166667 C497.666667,355.289736 500.872828,351.161644 505.292359,349.775184 C506.521642,343.076286 512.390228,338 519.444444,338 C527.391208,338 533.833333,344.442125 533.833333,352.388889 C533.833333,360.335653 527.391208,366.777778 519.444444,366.777778 C518.724366,366.777778 518.016641,366.724884 517.324945,366.622769 C515.342208,369.311443 512.152561,371.055556 508.555556,371.055556 C506.992048,371.055556 505.505506,370.726028 504.161593,370.132635 C503.100125,371.853231 501.197873,373 499.027778,373 C495.698728,373 493,370.301272 493,366.972222 C493,364.097504 495.012376,361.692801 497.705261,361.089981 Z"/>
    <filter id="space-I" width="139.2%" height="151.4%" x="-11%" y="-12.9%" filterUnits="objectBoundingBox">
      <feOffset dx="7" dy="9" in="SourceAlpha" result="shadowOffsetOuter1"/>
      <feColorMatrix in="shadowOffsetOuter1" values="0 0 0 0 0   0 0 0 0 0   0 0 0 0 0  0 0 0 0.1 0"/>
    </filter>
    <filter id="space-K" width="141.6%" height="154.3%" x="-12.2%" y="-14.3%" filterUnits="objectBoundingBox">
      <feOffset dx="-4" dy="-10" in="SourceAlpha" result="shadowOffsetInner1"/>
      <feComposite in="shadowOffsetInner1" in2="SourceAlpha" k2="-1" k3="1" operator="arithmetic" result="shadowInnerInner1"/>
      <feColorMatrix in="shadowInnerInner1" values="0 0 0 0 0   0 0 0 0 0   0 0 0 0 0  0 0 0 0.1 0"/>
    </filter>
    <path id="space-M" d="M8.64231666,182.41017 C8.59537429,181.8511 8.57142857,181.285489 8.57142857,180.714286 C8.57142857,171.756657 14.4602972,164.174448 22.5778027,161.627889 C24.8356687,149.32379 35.6147047,140 48.5714286,140 C63.1675255,140 75,151.832474 75,166.428571 C75,181.024668 63.1675255,192.857143 48.5714286,192.857143 C47.2488353,192.857143 45.9489333,192.75999 44.6784697,192.572432 C41.0367053,197.510815 35.1781722,200.714286 28.5714286,200.714286 C25.6996804,200.714286 22.9692972,200.109031 20.5008848,199.019126 C18.5512503,202.179404 15.057317,204.285714 11.0714286,204.285714 C4.95684741,204.285714 0,199.328867 0,193.214286 C0,187.934191 3.69620112,183.51739 8.64231666,182.41017 Z"/>
    <filter id="space-L" width="121.3%" height="128%" x="-6%" y="-7%" filterUnits="objectBoundingBox">
      <feOffset dx="7" dy="9" in="SourceAlpha" result="shadowOffsetOuter1"/>
      <feColorMatrix in="shadowOffsetOuter1" values="0 0 0 0 0   0 0 0 0 0   0 0 0 0 0  0 0 0 0.1 0"/>
    </filter>
    <filter id="space-N" width="122.7%" height="129.6%" x="-6.7%" y="-7.8%" filterUnits="objectBoundingBox">
      <feOffset dx="-4" dy="-10" in="SourceAlpha" result="shadowOffsetInner1"/>
      <feComposite in="shadowOffsetInner1" in2="SourceAlpha" k2="-1" k3="1" operator="arithmetic" result="shadowInnerInner1"/>
      <feColorMatrix in="shadowInnerInner1" values="0 0 0 0 0   0 0 0 0 0   0 0 0 0 0  0 0 0 0.1 0"/>
    </filter>
    <path id="space-P" d="M45.6463136,204.707977 C45.6156445,204.342719 45.6,203.973186 45.6,203.6 C45.6,197.747683 49.4473942,192.793973 54.7508311,191.130221 C56.2259702,183.091543 63.2682737,177 71.7333333,177 C81.26945,177 89,184.73055 89,194.266667 C89,203.802783 81.26945,211.533333 71.7333333,211.533333 C70.8692391,211.533333 70.0199698,211.46986 69.1899335,211.347322 C66.8106492,214.573732 62.9830735,216.666667 58.6666667,216.666667 C56.7904579,216.666667 55.0066075,216.271233 53.3939114,215.559162 C52.1201502,217.623877 49.8374471,219 47.2333333,219 C43.2384736,219 40,215.761526 40,211.766667 C40,208.317005 42.4148514,205.431361 45.6463136,204.707977 Z"/>
    <filter id="space-O" width="132.7%" height="142.9%" x="-9.2%" y="-10.7%" filterUnits="objectBoundingBox">
      <feOffset dx="7" dy="9" in="SourceAlpha" result="shadowOffsetOuter1"/>
      <feColorMatrix in="shadowOffsetOuter1" values="0 0 0 0 0   0 0 0 0 0   0 0 0 0 0  0 0 0 0.1 0"/>
    </filter>
    <filter id="space-Q" width="134.7%" height="145.2%" x="-10.2%" y="-11.9%" filterUnits="objectBoundingBox">
      <feOffset dx="-4" dy="-10" in="SourceAlpha" result="shadowOffsetInner1"/>
      <feComposite in="shadowOffsetInner1" in2="SourceAlpha" k2="-1" k3="1" operator="arithmetic" result="shadowInnerInner1"/>
      <feColorMatrix in="shadowInnerInner1" values="0 0 0 0 0   0 0 0 0 0   0 0 0 0 0  0 0 0 0.1 0"/>
    </filter>
    <path id="space-R" d="M192.841592,597.7356 C196.908778,593.269116 203.207643,590.2345 210.407951,589.857148 L214.992026,589.616906 C214.980049,589.467306 214.970102,589.317178 214.962207,589.16654 C214.401282,578.463418 224.415824,569.238153 237.330313,568.561333 L348.346278,562.743233 C361.260767,562.066413 372.184749,570.194337 372.745674,580.897459 C372.870288,583.275236 372.472961,585.580075 371.637851,587.734452 L378.676474,587.365573 C382.588976,587.160528 386.318787,587.763594 389.633102,589.001556 C356.095865,603.789159 319.006805,612 280,612 C249.515949,612 220.203163,606.985216 192.841598,597.735603 Z"/>
    <filter id="space-S" width="102.5%" height="110.1%" x="-1.3%" y="-5.1%" filterUnits="objectBoundingBox">
      <feMorphology in="SourceAlpha" radius="3" result="shadowSpreadInner1"/>
      <feOffset dy="2" in="shadowSpreadInner1" result="shadowOffsetInner1"/>
      <feComposite in="shadowOffsetInner1" in2="SourceAlpha" k2="-1" k3="1" operator="arithmetic" result="shadowInnerInner1"/>
      <feColorMatrix in="shadowInnerInner1" values="0 0 0 0 0   0 0 0 0 0   0 0 0 0 0  0 0 0 0.1 0"/>
    </filter>
    <filter id="space-T" width="101.1%" height="105.6%" x="-.6%" y="-1.1%" filterUnits="objectBoundingBox">
      <feOffset dy="2" in="SourceAlpha" result="shadowOffsetOuter1"/>
      <feColorMatrix in="shadowOffsetOuter1" result="shadowMatrixOuter1" values="0 0 0 0 0   0 0 0 0 0   0 0 0 0 0  0 0 0 0.1 0"/>
      <feMerge>
        <feMergeNode in="shadowMatrixOuter1"/>
        <feMergeNode in="SourceGraphic"/>
      </feMerge>
    </filter>
    <path id="space-U" d="M116.308014,84.4843219 C111.166372,55.31396 82.4524301,32.984375 47.800654,32.984375 C47.7236921,32.984375 47.6467595,32.9844851 47.5698563,32.9847053 C47.5085422,32.9844852 47.447199,32.984375 47.3858268,32.984375 C22.7547967,32.984375 2.78740157,50.7285896 2.78740157,72.6171875 C2.78740157,78.8525738 4.40776431,84.7516415 7.29470885,90 L9.44983335,90 C28.4282391,85.6823971 53.7379089,83.046875 81.5314961,83.046875 C93.7082917,83.046875 105.408312,83.5527503 116.308017,84.4843222 Z"/>
    <filter id="space-V" width="105.3%" height="110.5%" x="-2.6%" y="-5.3%" filterUnits="objectBoundingBox">
      <feOffset dy="6" in="SourceAlpha" result="shadowOffsetInner1"/>
      <feComposite in="shadowOffsetInner1" in2="SourceAlpha" k2="-1" k3="1" operator="arithmetic" result="shadowInnerInner1"/>
      <feColorMatrix in="shadowInnerInner1" values="0 0 0 0 1   0 0 0 0 1   0 0 0 0 1  0 0 0 0.4 0"/>
    </filter>
    <text id="space-bt" fill="#FFF" font-family="Oxygen-Bold, Oxygen" font-size="36" font-weight="bold" letter-spacing=".583">
      <tspan x="113" y="63">nishiki.liu@gmail.com</tspan>
    </text>
    <filter id="space-bs" width="100.5%" height="108.9%" x="-.3%" y="-2.2%" filterUnits="objectBoundingBox">
      <feOffset dy="2" in="SourceAlpha" result="shadowOffsetOuter1"/>
      <feColorMatrix in="shadowOffsetOuter1" values="0 0 0 0 0   0 0 0 0 0   0 0 0 0 0  0 0 0 0.2 0"/>
    </filter>
    <path id="space-bv" d="M38,30 L79,30 C82.8659932,30 86,33.1340068 86,37 L86,62 C86,65.8659932 82.8659932,69 79,69 L38,69 L38,69 C34.1340068,69 31,65.8659932 31,62 L31,37 L31,37 C31,33.1340068 34.1340068,30 38,30 L38,30 Z M58.7391304,53.7804878 L81.6956522,35.2317073 L35.7826087,35.2317073 L58.7391304,53.7804878 Z"/>
    <filter id="space-bu" width="103.6%" height="110.3%" x="-1.8%" y="-2.6%" filterUnits="objectBoundingBox">
      <feOffset dy="2" in="SourceAlpha" result="shadowOffsetOuter1"/>
      <feColorMatrix in="shadowOffsetOuter1" values="0 0 0 0 0   0 0 0 0 0   0 0 0 0 0  0 0 0 0.1 0"/>
    </filter>
  </defs>
  <g fill="none" fill-rule="evenodd">
    <g id="space-sun">
      <g transform="translate(694 364)">
        <use fill="#000" filter="url(#space-a)" xlink:href="#space-b"/>
        <use fill="#FFDCA3" xlink:href="#space-b"/>
        <use fill="#000" filter="url(#space-c)" xlink:href="#space-d"/>
        <use fill="#FFDCA3" xlink:href="#space-d"/>
        <g>
          <use fill="#000" filter="url(#space-e)" xlink:href="#space-f"/>
          <use fill="#FFDCA3" xlink:href="#space-f"/>
        </g>
      </g>
    </g>
    <g id="space-earth">
      <g transform="translate(445 301)">
        <use fill="#76B0CD" xlink:href="#space-g"/>
        <use fill="#000" filter="url(#space-h)" xlink:href="#space-g"/>
        <use stroke="#979797" xlink:href="#space-g"/>
        <use fill="#217E53" xlink:href="#space-i"/>
        <use fill="#000" filter="url(#space-j)" xlink:href="#space-i"/>
        <use fill="#217E53" xlink:href="#space-k"/>
        <use fill="#000" filter="url(#space-l)" xlink:href="#space-k"/>
        <use fill="#217E53" xlink:href="#space-m"/>
        <use fill="#000" filter="url(#space-n)" xlink:href="#space-m"/>
        <g>
          <use fill="#217E53" xlink:href="#space-o"/>
          <use fill="#000" filter="url(#space-p)" xlink:href="#space-o"/>
        </g>
        <g transform="translate(0 83)">
          <use fill="#000" filter="url(#space-q)" xlink:href="#space-r"/>
          <use fill="#FFF" xlink:href="#space-r"/>
          <use fill="#000" filter="url(#space-s)" xlink:href="#space-r"/>
          <use fill="#000" filter="url(#space-t)" xlink:href="#space-u"/>
          <use fill="#FFF" xlink:href="#space-u"/>
          <use fill="#000" filter="url(#space-v)" xlink:href="#space-u"/>
          <use fill="#000" filter="url(#space-w)" xlink:href="#space-x"/>
          <use fill="#FFF" xlink:href="#space-x"/>
          <use fill="#000" filter="url(#space-y)" xlink:href="#space-x"/>
          <g>
            <use fill="#000" filter="url(#space-z)" xlink:href="#space-A"/>
            <use fill="#FFF" xlink:href="#space-A"/>
            <use fill="#000" filter="url(#space-B)" xlink:href="#space-A"/>
          </g>
          <g>
            <use fill="#000" filter="url(#space-C)" xlink:href="#space-D"/>
            <use fill="#FFF" xlink:href="#space-D"/>
            <use fill="#000" filter="url(#space-E)" xlink:href="#space-D"/>
          </g>
          <g>
            <use fill="#000" filter="url(#space-F)" xlink:href="#space-G"/>
            <use fill="#FFF" xlink:href="#space-G"/>
            <use fill="#000" filter="url(#space-H)" xlink:href="#space-G"/>
          </g>
          <g>
            <use fill="#000" filter="url(#space-I)" xlink:href="#space-J"/>
            <use fill="#FFF" xlink:href="#space-J"/>
            <use fill="#000" filter="url(#space-K)" xlink:href="#space-J"/>
          </g>
          <g>
            <use fill="#000" filter="url(#space-L)" xlink:href="#space-M"/>
            <use fill="#FFF" xlink:href="#space-M"/>
            <use fill="#000" filter="url(#space-N)" xlink:href="#space-M"/>
          </g>
          <g>
            <use fill="#000" filter="url(#space-O)" xlink:href="#space-P"/>
            <use fill="#FFF" xlink:href="#space-P"/>
            <use fill="#000" filter="url(#space-Q)" xlink:href="#space-P"/>
          </g>
        </g>
        <g>
          <use fill="#DDD" xlink:href="#space-R"/>
          <use fill="#000" filter="url(#space-S)" xlink:href="#space-R"/>
        </g>
        <g filter="url(#space-T)" transform="translate(197)">
          <path fill="#C9F0FF" d="M19.1480307,48.8704552 L18.1954126,-0.213010593 L11.4412449,44.6176072 C14.3942555,44.9754569 17.0674839,46.5229775 19.1480307,48.8704552 Z" transform="rotate(-29 15.295 24.329)"/>
          <path fill="#F5A623" d="M21.3459377 42.8193491C21.514182 42.6668474 21.6474565 42.4709905 21.7266071 42.2411205L21.7266071 42.2411205 23.9883204 35.6726281C24.2389166 34.9448438 23.8520793 34.1517097 23.124295 33.9011135 22.3965107 33.6505173 21.6033767 34.0373546 21.3527804 34.7651389L21.3527804 34.7651389 19.9082826 38.9602653 21.3459377 42.8193491zM19.2452383 37.1804619L21.2009188 31.5007531C21.451515 30.7729688 21.0646777 29.9798347 20.3368934 29.7292385L20.3368934 29.7292385 20.3368934 29.7292385C19.6091092 29.4786423 18.8159751 29.8654796 18.5653789 30.5932639L18.5653789 30.5932639 17.7132259 33.0680959 19.2452383 37.1804619zM17.0501816 31.2882924L18.4135173 27.3288781C18.6641135 26.6010938 18.2772761 25.8079597 17.5494919 25.5573635L17.5494919 25.5573635 17.5494919 25.5573635C16.8217076 25.3067673 16.0285735 25.6936046 15.7779773 26.4213889L15.7779773 26.4213889 15.5181692 27.1759264 17.0501816 31.2882924zM14.8551249 25.3961229L15.6261157 23.1570031C15.8767119 22.4292188 15.4898746 21.6360847 14.7620903 21.3854885L14.7620903 21.3854885 14.7620903 21.3854885C14.2965805 21.2252006 13.8043346 21.3257006 13.4444278 21.6094022L14.8551249 25.3961229zM12.6600682 19.5039534L12.8387141 18.9851281C13.0893103 18.2573438 12.702473 17.4642097 11.9746887 17.2136135 11.9128422 17.192318 11.8505237 17.1756258 11.7881064 17.1633548L12.6600682 19.5039534z"/>
          <g>
            <use fill="#226F8B" xlink:href="#space-U"/>
            <use fill="#000" filter="url(#space-V)" xlink:href="#space-U"/>
          </g>
          <g transform="translate(129 31)">
            <path fill="#226F8B" d="M44.8087154,8.18921613 C43.4495486,17.7310414 41.5078583,23.7308355 38.9836447,26.1885986 C36.7323949,28.3805837 31.991719,29.7279151 24.761617,30.2305929 L26.5948568,54.2534667 C19.8022546,52.3042979 11.0746564,51.019353 1.43360754,50.7222202 L14.719984,28.2937997 C7.61813997,25.6323657 3.29042212,22.8865673 1.73683046,20.0564045 C0.0018509678,16.8958092 -0.0651152703,10.3660622 1.53593174,0.46716347 C5.14945375,8.94192736 14.7386267,15 26,15 C33.3978835,15 40.074127,12.3856319 44.8087154,8.18921613 Z"/>
            <path fill="#FFF" fill-opacity=".4" d="M43.2830649,16.4360855 C43.8543013,14.0682927 44.3628515,11.3193362 44.8087154,8.18921613 C40.074127,12.3856319 33.3978835,15 26,15 C14.7386267,15 5.14945375,8.94192736 1.53593174,0.46716347 C1.2449718,2.26610067 1.00909994,3.95376769 0.828316184,5.53016452 C3.72697388,15.003605 13.897885,22 26,22 C32.6348428,22 38.6892329,19.897127 43.2830649,16.4360855 Z"/>
          </g>
          <path stroke="#FFF" stroke-linecap="round" stroke-opacity=".5" stroke-width="2" d="M8.36220472,83.6579188 C27.3162445,78.9978921 53.0148394,86.0730442 52.6160786,69.140625"/>
          <ellipse cx="52.961" cy="60.797" fill="#000" fill-opacity=".5" rx="2.787" ry="2.781"/>
        </g>
      </g>
    </g>
    <g id="space-text" font-size="48" transform="translate(357 110)">
      <g class="svg-responsive svg-responsive--text">
        <text id="space-text-1" fill="#FFF" font-family="Montserrat-Bold, Montserrat" font-weight="bold">
          <tspan x="0" y="48">Building things is my passion.</tspan>
        </text>
        <text id="space-text-2" fill="#9B9B9B" font-family="Oxygen-Light, Oxygen" font-weight="300">
          <tspan x="64" y="111">Making you smile is another.</tspan>
        </text>
      </g>
    </g>
    <g id="space-cta" class="svg-ctas">
      <g class="svg-responsive">
        <g transform="translate(458 357)">
          <text fill="#FFF" font-family="Oxygen-Bold, Oxygen" font-size="24" font-weight="bold" letter-spacing=".583">
            <a class="svg-link" xlink:href="https://github.com/nshki" target="_blank"><tspan x="63" y="149">GitHub</tspan></a>
            <a class="svg-link" xlink:href="https://twitter.com/nshki_" target="_blank"><tspan x="210" y="149">Twitter</tspan></a>
            <a class="svg-link" xlink:href="https://www.linkedin.com/in/nshki/" target="_blank"><tspan x="360" y="149">LinkedIn</tspan></a>
          </text>
          <a class="svg-btn" href="mailto:nishiki.liu@gmail.com" target="_blank">
            <rect width="525" height="103" fill="#A96A00" rx="11"/>
            <rect class="svg-btn-front" width="525" height="96" fill="#F5A623" rx="11"/>
            <g fill="#FFF">
              <use filter="url(#space-bs)" xlink:href="#space-bt"/>
              <use xlink:href="#space-bt"/>
            </g>
            <g>
              <use fill="#000" filter="url(#space-bu)" xlink:href="#space-bv"/>
              <use fill="#FFF" xlink:href="#space-bv"/>
            </g>
          </a>
        </g>
      </g>
    </g>
    <g id="contact-text" font-size="48" transform="translate(398 110)">
      <g class="svg-responsive svg-responsive--text">
        <text id="space-text-3" fill="#FFF" font-family="Montserrat-Bold, Montserrat" font-weight="bold">
          <tspan x="-8" y="48">Let’s make magic happen.</tspan>
        </text>
        <text id="space-text-4" fill="#9B9B9B" font-family="Oxygen-Light, Oxygen" font-weight="300">
          <tspan x="0" y="111">I’m always available for a chat.</tspan>
        </text>
      </g>
    </g>
  </g>
</svg>
